<svg xmlns="http://www.w3.org/2000/svg" xmlns:xlink="http://www.w3.org/1999/xlink" width="131.928" height="130.945" viewBox="0 0 131.928 130.945"><defs><clipPath id="a"><rect width="131.928" height="130.945" fill="none"/></clipPath></defs><g clip-path="url(#a)"><path d="M88.021,15.308C56.838,23.1,24.345,54.621,15.432,85.714c-2.555,8.913-6.9,23.348-6.9,23.348s9.735,10.519,13.78,13.974c7.436,6.37,19.059,8.476,33.469,4.867,31.183-7.8,63.676-39.312,72.589-70.406,4.649-16.233,1.939-29.153-6.139-36.667C119.037,17.851,109.366,7.8,109.366,7.8S96.485,13.2,88.021,15.308"/><path d="M88.021,15.308C56.838,23.1,24.345,54.621,15.432,85.714c-2.555,8.913-6.9,23.348-6.9,23.348s9.735,10.519,13.78,13.974c7.436,6.37,19.059,8.476,33.469,4.867,31.183-7.8,63.676-39.312,72.589-70.406,4.649-16.233,1.939-29.153-6.139-36.667C119.037,17.851,109.366,7.8,109.366,7.8S96.485,13.2,88.021,15.308Z" fill="none" stroke="#000" stroke-linecap="round" stroke-linejoin="round" stroke-width="2.569"/><path d="M88.869,88.868c28.25-27.6,38.235-63.2,22.3-79.5s-51.75-7.15-80,20.453-38.235,63.2-22.3,79.5,51.75,7.15,80-20.453" fill="#ff7165"/><ellipse cx="71.514" cy="41.28" rx="71.514" ry="41.28" transform="matrix(0.715, -0.699, 0.699, 0.715, -19.98, 79.795)" fill="none" stroke="#000" stroke-linecap="round" stroke-linejoin="round" stroke-width="2.569"/><path d="M48.759,85.149C20.132,92.3,34.3,42.805,62.925,35.652" fill="none" stroke="#000" stroke-linecap="round" stroke-linejoin="round" stroke-width="2.569"/><path d="M75.425,69.246c4.3-1.533,7.332-4.064,6.765-5.654s-4.513-1.637-8.816-.1-7.332,4.064-6.766,5.655,4.514,1.637,8.817.1"/><path d="M75.425,69.246c4.3-1.533,7.332-4.064,6.765-5.654s-4.513-1.637-8.816-.1-7.332,4.064-6.766,5.655S71.122,70.779,75.425,69.246Z" fill="none" stroke="#000" stroke-linecap="round" stroke-linejoin="round" stroke-width="2.569"/><path d="M82,46.284c4.3-1.533,7.332-4.064,6.766-5.654s-4.514-1.637-8.817-.1-7.332,4.064-6.766,5.654,4.514,1.638,8.817.1"/><path d="M82,46.284c4.3-1.533,7.332-4.064,6.766-5.654s-4.514-1.637-8.817-.1-7.332,4.064-6.766,5.654S77.7,47.817,82,46.284Z" fill="none" stroke="#000" stroke-linecap="round" stroke-linejoin="round" stroke-width="2.569"/></g></svg>